<?xml version="1.0" encoding="UTF-8" standalone="no"?>
<svg
   xmlns:dc="http://purl.org/dc/elements/1.1/"
   xmlns:cc="http://creativecommons.org/ns#"
   xmlns:rdf="http://www.w3.org/1999/02/22-rdf-syntax-ns#"
   xmlns:svg="http://www.w3.org/2000/svg"
   xmlns="http://www.w3.org/2000/svg"
   xmlns:sodipodi="http://sodipodi.sourceforge.net/DTD/sodipodi-0.dtd"
   xmlns:inkscape="http://www.inkscape.org/namespaces/inkscape"
   version="1.1"
   id="Layer_1"
   x="0px"
   y="0px"
   viewBox="0 0 1024 1024"
   enable-background="new 0 0 260.7 294.8"
   xml:space="preserve"
   sodipodi:docname="ds-cornhex.svg"
   inkscape:version="1.0.1 (3bc2e813f5, 2020-09-07)"
   width="1024"
   height="1024"
   inkscape:export-filename="C:\Users\77120\OneDrive\Documents\DS\ds-cornhex.png"
   inkscape:export-xdpi="337.5"
   inkscape:export-ydpi="337.5"><metadata
   id="metadata85"><rdf:RDF><cc:Work
       rdf:about=""><dc:format>image/svg+xml</dc:format><dc:type
         rdf:resource="http://purl.org/dc/dcmitype/StillImage" /><dc:title></dc:title></cc:Work></rdf:RDF></metadata><defs
   id="defs83" /><sodipodi:namedview
   pagecolor="#ffffff"
   bordercolor="#666666"
   borderopacity="1"
   objecttolerance="10"
   gridtolerance="10"
   guidetolerance="10"
   inkscape:pageopacity="0"
   inkscape:pageshadow="2"
   inkscape:window-width="3440"
   inkscape:window-height="1377"
   id="namedview81"
   showgrid="false"
   inkscape:zoom="0.85481686"
   inkscape:cx="502.0586"
   inkscape:cy="500.45111"
   inkscape:window-x="-8"
   inkscape:window-y="-8"
   inkscape:window-maximized="1"
   inkscape:current-layer="layer2" />
<g
   id="g4">
	<path
   fill="#ecb425"
   d="M 20.8,231.7"
   id="path2" />
</g>
<g
   id="g8">
	<path
   fill="#ecb425"
   d="M 85.7,269.1"
   id="path6" />
</g>



<g
   id="g24">
	<path
   fill="#ecb425"
   d="M 228.9,237.8"
   id="path22" />
</g>

<g
   id="g30">
	<path
   fill="#ecb425"
   d="M 194.5,199.7"
   id="path28" />
</g>


<g
   id="g42">
	<path
   fill="none"
   stroke="#ffffff"
   stroke-width="4"
   stroke-miterlimit="10"
   d="M 260.7,260.7"
   id="path40" />
</g>
<g
   id="g46">
	<path
   fill="none"
   stroke="#ffffff"
   stroke-width="4"
   stroke-miterlimit="10"
   d="M 8.3,44.7"
   id="path44" />
</g>
<rect
   x="0"
   y="0"
   fill="none"
   width="260.70001"
   height="294.79999"
   id="rect48" />
<g
   id="g50">
</g>
<g
   id="g52">
</g>
<g
   id="g54">
</g>
<g
   id="g56">
</g>
<g
   id="g58">
</g>
<g
   id="g60">
</g>
<g
   id="g62">
</g>
<g
   id="g64">
</g>
<g
   id="g66">
</g>
<g
   id="g68">
</g>
<g
   id="g70">
</g>
<g
   id="g72">
</g>
<g
   id="g74">
</g>
<g
   id="g76">
</g>
<g
   id="g78">
</g>
<g
   inkscape:groupmode="layer"
   id="layer1"
   inkscape:label="trace polygon"
   style="display:none;opacity:0.603226"
   sodipodi:insensitive="true"><path
     sodipodi:type="star"
     style="fill:#19364e;stroke-width:15.4957;stroke-linecap:round;stroke-linejoin:round"
     id="path910"
     sodipodi:sides="6"
     sodipodi:cx="512"
     sodipodi:cy="-512"
     sodipodi:r1="512"
     sodipodi:r2="443.40497"
     sodipodi:arg1="1.5707963"
     sodipodi:arg2="2.0943951"
     inkscape:flatsided="true"
     inkscape:rounded="0"
     inkscape:randomized="0"
     d="M 512.00001,0 68.595,-255.99999 l -1.4e-5,-512 L 511.99999,-1024 955.405,-768.00001 l 10e-6,512 z"
     transform="scale(1,-1)" /></g><g
   inkscape:groupmode="layer"
   id="layer2"
   inkscape:label="cornHex"
   style="display:inline;opacity:1"><g
     id="g985"><g
       id="g12"
       transform="matrix(3.6076966,0,0,3.6076966,42.277903,-23.540216)">
	<path
   fill="#f8be27"
   d="m 181.9,216.3 c 6.9,-4.5 17.7,-3.7 24,1.7 l 11.7,10 c 6.3,5.4 5.5,13.2 -1.6,17.3 l -72.5,42 c -7.1,4.1 -18.8,4.1 -25.9,-0.1 l -11.2,-6.6 c -7.1,-4.2 -7.2,-11.2 -0.3,-15.7 z"
   id="path10" />
</g><g
       id="g16"
       transform="matrix(3.6076966,0,0,3.6076966,42.277903,-23.540216)">
	<path
   fill="#ecb425"
   d="m 98.3,260.9 c -6.9,4.5 -18.5,4.8 -25.6,0.6 l -31.4,-18 c -7.2,-4.1 -9.8,-13.4 -5.8,-20.7 l 49,-90.2 c 3.9,-7.3 12.3,-8.8 18.5,-3.4 l 74.1,63.8 c 6.3,5.4 5.7,13.4 -1.2,17.9 z"
   id="path14" />
</g><g
       id="g20"
       transform="matrix(3.6076966,0,0,3.6076966,42.277903,-23.540216)">
	<path
   fill="#d2a121"
   d="m 28,218.6 c -4,7.2 -10.9,11.1 -15.3,8.5 -4.4,-2.6 -8,-11.4 -8,-19.6 L 4.5,92.5 c 0,-8.2 5.1,-18 11.4,-21.6 6.3,-3.6 16.5,-2.2 22.8,3.2 l 35.4,30.5 c 6.3,5.4 8.1,15.7 4.1,22.9 z"
   id="path18" />
</g><path
       fill="#d2a121"
       d="M 334.50133,345.16638 197.40886,228.27701 c -18.03849,-15.15233 -15.5131,-43.65313 5.05077,-55.55853 L 490.35382,5.6821265 c 12.98771,-7.5761629 28.86157,-7.5761629 41.84928,0 v 0 c 12.62694,7.2153935 16.95618,23.4500275 9.74078,36.0769655 L 382.12292,331.09636 c -5.41154,9.74078 -14.79155,16.5954 -25.61464,19.12079 v 0 c -7.93694,2.16462 -15.87387,0 -22.00695,-5.05077 z"
       id="path26"
       style="stroke-width:3.6077" /><g
       id="g34"
       transform="matrix(3.6076966,0,0,3.6076966,42.277903,-23.540216)">
	<path
   fill="#f8be27"
   d="m 243.2,176.7 c 7,-4.4 12.7,-1.3 12.7,7 v 23.4 c 0,8.3 -4.7,17.7 -10.5,21.1 -5.8,3.4 -15.7,1.7 -22,-3.6 L 211,214.1 c -6.3,-5.4 -5.7,-13.3 1.2,-17.8 z"
   id="path32" />
</g><g
       id="g38"
       transform="matrix(3.6076966,0,0,3.6076966,42.277903,-23.540216)">
	<path
   fill="#ecb425"
   d="m 207.1,191.5 c -6.9,4.5 -17.7,3.8 -23.9,-1.6 L 106.4,124 c -6.3,-5.4 -8.2,-15.7 -4.3,-23 l 38.8,-72.8 c 3.9,-7.3 12.9,-9.9 20.1,-5.8 l 81.7,47 c 7.2,4.1 13,14.2 13,22.5 l 0.1,52.6 c 0,8.2 -5.6,18.7 -12.5,23.2 z"
   id="path36" />
</g></g></g></svg>
